<svg width="56" height="74" viewBox="0 0 56 74" fill="none" xmlns="http://www.w3.org/2000/svg">
<path d="M38.2178 13.7076C38.435 17.1521 39.4377 20.2585 40.9707 22.5992C42.5015 24.9365 44.5902 26.548 46.9814 26.9L51.0625 27.4996L46.9814 28.1002C44.5901 28.4516 42.5015 30.0627 40.9707 32.4C39.4377 34.7408 38.435 37.8475 38.2178 41.2926L38 44.7506L37.7822 41.2926C37.565 37.848 36.5623 34.7418 35.0293 32.401C33.4985 30.0636 31.4099 28.4522 29.0186 28.1002L24.9365 27.4996L29.0186 26.9C31.41 26.5486 33.4985 24.9367 35.0293 22.5992C36.5622 20.2585 37.565 17.1526 37.7822 13.7076L38 10.2487L38.2178 13.7076Z" stroke="white"/>
<path d="M15.0986 39.4694C15.2804 42.362 16.119 44.9737 17.4053 46.9449C18.6893 48.9126 20.4479 50.2797 22.4717 50.5787L25.3252 50.9996L22.4717 51.4215C20.4478 51.7201 18.6892 53.0867 17.4053 55.0543C16.119 57.0255 15.2804 59.6378 15.0986 62.5309L15 64.1022L14.9014 62.5309C14.7197 59.6383 13.8809 57.0265 12.5947 55.0553C11.3107 53.0876 9.55214 51.7206 7.52832 51.4215L4.67383 50.9996L7.52832 50.5787C9.5521 50.2802 11.3108 48.9135 12.5947 46.9459C13.881 44.9747 14.7196 42.3625 14.9014 39.4694L15 37.8971L15.0986 39.4694Z" fill="white" stroke="white"/>
</svg>
